# xmcd CD database file
#
# Track frame offsets:
#	150
#	20765
#	39700
#	49635
#	70162
#	88985
#	105600
#	124617
#	141295
#	158657
#	174397
#	194320
#	216137
#	236840
#	256345
#	272457
#
# Disc length: 3887 seconds
#
# Revision: 0
# Processed by: cddbd v1.5.1PL0 Copyright (c) Steve Scherf et al.
# Submitted via: CDex 1.51
#
DISCID=e30f2d10
DTITLE=加羽沢美濃 - Piano Pure Memories of 2002
DYEAR=2002
DGENRE=Easy Listening
TTITLE0=風になる（つじあやの）
TTITLE1=亜麻色の髪の乙女（島谷ひとみ）
TTITLE2=プリンセス・ワルツ 〜フジテレビ系「整形美人」より（加羽沢美濃）
TTITLE3=SAKURAドロップス（宇多田ヒカル）
TTITLE4=You Go Your Way（CHEMISTRY）
TTITLE5=愛のうた（ストロベリー・フラワー）
TTITLE6=東京（桑田佳祐）
TTITLE7=キラキラ（小田和正）
TTITLE8=島唄（THE BOOM）
TTITLE9=STARS（中島美嘉）
TTITLE10=涙そうそう（夏川りみ）
TTITLE11=アシンメトリー（スガシカオ）
TTITLE12=眠れぬ夜は君のせい(MISIA）
TTITLE13=ワダツミの木（元ちとせ）
TTITLE14=おさかな天国(柴矢裕美)
TTITLE15=WILL（中島美嘉）
EXTD=YEAR: 2002
EXTT0=
EXTT1=
EXTT2=
EXTT3=
EXTT4=
EXTT5=
EXTT6=
EXTT7=
EXTT8=
EXTT9=
EXTT10=
EXTT11=
EXTT12=
EXTT13=
EXTT14=
EXTT15=
PLAYORDER=
